<?xml version="1.0" encoding="utf-8"?>
<!-- Generator: Adobe Illustrator 18.0.0, SVG Export Plug-In . SVG Version: 6.00 Build 0)  -->
<!DOCTYPE svg PUBLIC "-//W3C//DTD SVG 1.1//EN" "http://www.w3.org/Graphics/SVG/1.1/DTD/svg11.dtd">
<svg version="1.1" id="Слой_1" xmlns="http://www.w3.org/2000/svg" xmlns:xlink="http://www.w3.org/1999/xlink" x="0px" y="0px"
	 viewBox="0 0 20 20" enable-background="new 0 0 20 20" xml:space="preserve">
<path fill="#00B800" d="M14.5,8H14V6.5C14,4,12,2,9.5,2S5,4,5,6.5V8H4.5C3.7,8,3,8.7,3,9.5v8C3,18.3,3.7,19,4.5,19h10
	c0.8,0,1.5-0.7,1.5-1.5v-8C16,8.7,15.3,8,14.5,8z M6,6.5C6,4.6,7.6,3,9.5,3S13,4.6,13,6.5V8H6V6.5z M15,17.5c0,0.3-0.2,0.5-0.5,0.5
	h-10C4.2,18,4,17.8,4,17.5v-8C4,9.2,4.2,9,4.5,9h10C14.8,9,15,9.2,15,9.5V17.5z"/>
</svg>
