<?xml version="1.0" encoding="utf-8"?>
<!-- Generator: Adobe Illustrator 18.0.0, SVG Export Plug-In . SVG Version: 6.00 Build 0)  -->
<!DOCTYPE svg PUBLIC "-//W3C//DTD SVG 1.1//EN" "http://www.w3.org/Graphics/SVG/1.1/DTD/svg11.dtd">
<svg version="1.1" id="Слой_1" xmlns="http://www.w3.org/2000/svg" xmlns:xlink="http://www.w3.org/1999/xlink" x="0px" y="0px"
	 viewBox="0 0 20 20" enable-background="new 0 0 20 20" xml:space="preserve">
<path fill="#00B800" d="M11.5,7C11.2,7,11,6.8,11,6.5C11,5.1,9.9,4,8.5,4C8.2,4,8,3.8,8,3.5S8.2,3,8.5,3C9.9,3,11,1.9,11,0.5
	C11,0.2,11.2,0,11.5,0S12,0.2,12,0.5C12,1.9,13.1,3,14.5,3C14.8,3,15,3.2,15,3.5S14.8,4,14.5,4C13.1,4,12,5.1,12,6.5
	C12,6.8,11.8,7,11.5,7z M10.3,3.5c0.5,0.3,0.9,0.7,1.2,1.2c0.3-0.5,0.7-0.9,1.2-1.2c-0.5-0.3-0.9-0.7-1.2-1.2
	C11.2,2.8,10.8,3.2,10.3,3.5z"/>
<path fill="#00B800" d="M1.5,10C1.2,10,1,9.8,1,9.5S0.8,9,0.5,9S0,8.8,0,8.5S0.2,8,0.5,8S1,7.8,1,7.5S1.2,7,1.5,7S2,7.2,2,7.5
	S2.2,8,2.5,8S3,8.2,3,8.5S2.8,9,2.5,9S2,9.2,2,9.5S1.8,10,1.5,10z"/>
<path fill="#00B800" d="M18.1,15.9L7.6,5.4C7.3,5.1,6.9,4.9,6.5,4.9S5.7,5.1,5.4,5.4L4.9,5.9C4.6,6.2,4.4,6.6,4.4,7s0.2,0.8,0.4,1.1
	l10.6,10.6c0.3,0.3,0.7,0.4,1.1,0.4s0.8-0.2,1.1-0.4l0.6-0.6c0.3-0.3,0.4-0.7,0.4-1.1S18.4,16.2,18.1,15.9z M5.6,6.6l0.6-0.6
	C6.2,6,6.4,5.9,6.5,5.9S6.8,6,6.9,6.1l1.4,1.4L7,8.8L5.6,7.4C5.4,7.2,5.4,6.8,5.6,6.6L5.6,6.6z M17.4,17.4l-0.6,0.6
	c-0.1,0.1-0.2,0.1-0.4,0.1s-0.3-0.1-0.4-0.1L7.7,9.5L9,8.2l8.4,8.4C17.6,16.8,17.6,17.2,17.4,17.4L17.4,17.4z"/>
<path fill="#00B800" d="M3.5,5C3.2,5,3,4.8,3,4.5C3,3.7,2.3,3,1.5,3C1.2,3,1,2.8,1,2.5S1.2,2,1.5,2C2.3,2,3,1.3,3,0.5
	C3,0.2,3.2,0,3.5,0S4,0.2,4,0.5C4,1.3,4.7,2,5.5,2C5.8,2,6,2.2,6,2.5S5.8,3,5.5,3C4.7,3,4,3.7,4,4.5C4,4.8,3.8,5,3.5,5z M3,2.5
	C3.2,2.6,3.4,2.8,3.5,3C3.6,2.8,3.8,2.6,4,2.5C3.8,2.4,3.6,2.2,3.5,2C3.4,2.2,3.2,2.4,3,2.5z"/>
<path fill="#00B800" d="M3.5,15C3.2,15,3,14.8,3,14.5C3,13.7,2.3,13,1.5,13C1.2,13,1,12.8,1,12.5S1.2,12,1.5,12
	C2.3,12,3,11.3,3,10.5C3,10.2,3.2,10,3.5,10S4,10.2,4,10.5C4,11.3,4.7,12,5.5,12C5.8,12,6,12.2,6,12.5S5.8,13,5.5,13
	C4.7,13,4,13.7,4,14.5C4,14.8,3.8,15,3.5,15z M3,12.5c0.2,0.1,0.4,0.3,0.5,0.5c0.1-0.2,0.3-0.4,0.5-0.5c-0.2-0.1-0.4-0.3-0.5-0.5
	C3.4,12.2,3.2,12.4,3,12.5z"/>
</svg>
