<?xml version="1.0" encoding="utf-8"?>
<!-- Generator: Adobe Illustrator 18.0.0, SVG Export Plug-In . SVG Version: 6.00 Build 0)  -->
<!DOCTYPE svg PUBLIC "-//W3C//DTD SVG 1.1//EN" "http://www.w3.org/Graphics/SVG/1.1/DTD/svg11.dtd">
<svg version="1.1" id="Слой_1" xmlns="http://www.w3.org/2000/svg" xmlns:xlink="http://www.w3.org/1999/xlink" x="0px" y="0px"
	 viewBox="0 0 20 20" enable-background="new 0 0 20 20" xml:space="preserve">
<path fill="#00B800" d="M13.5,9C12.1,9,11,7.9,11,6.5S12.1,4,13.5,4S16,5.1,16,6.5S14.9,9,13.5,9z M13.5,5C12.7,5,12,5.7,12,6.5
	S12.7,8,13.5,8S15,7.3,15,6.5S14.3,5,13.5,5z"/>
<path fill="#00B800" d="M0.5,20c-0.1,0-0.3-0.1-0.4-0.1C0,19.7,0,19.5,0,19.3C1.6,15.1,3.2,13,4.8,13c0.5,0,1.1,0.2,1.5,0.7
	c0.7,0.7,0.8,1.5,0.6,1.9c-0.3,1.5-2.5,3-6.3,4.4C0.6,20,0.6,20,0.5,20L0.5,20z M4.8,14c-0.5,0-1.1,0.4-1.7,1.3
	c-0.6,0.8-1.2,2-1.8,3.4c1.3-0.5,2.4-1.1,3.2-1.6c1.1-0.7,1.4-1.3,1.5-1.6s0-0.7-0.4-1C5.4,14.1,5.1,14,4.8,14L4.8,14z"/>
<path fill="#00B800" d="M19.5,0c-2.6,0-4.9,0.4-6.9,1.3C11,2,9.6,3,8.5,4.3C8.3,4.5,8.1,4.8,7.9,5C7.1,5.1,6.2,5.4,5.3,6
	C4.6,6.6,3.8,7.3,3.1,8.2c-1.2,1.5-2,3-2,3.1c-0.1,0.2,0,0.5,0.2,0.6C1.3,12,1.4,12,1.5,12c0.1,0,0.3,0,0.4-0.1c0,0,0.5-0.5,1.3-0.9
	c0.7-0.4,1.7-0.8,3-0.9c0.3,0.8,1.2,1.8,1.7,2.2c0.4,0.4,1.4,1.3,2.2,1.7c-0.1,1.3-0.5,2.3-0.9,3c-0.5,0.8-0.9,1.3-0.9,1.3
	C8,18.3,8,18.6,8.1,18.8C8.2,18.9,8.3,19,8.5,19c0.1,0,0.2,0,0.2-0.1c0.1,0,1.6-0.8,3.1-2c0.9-0.7,1.6-1.5,2.2-2.2
	c0.6-0.9,1-1.8,1-2.6c0.2-0.2,0.5-0.4,0.7-0.6c1.3-1.1,2.3-2.5,3-4.1c0.9-2,1.3-4.3,1.3-6.9V0L19.5,0L19.5,0z M3.1,9.8
	c1-1.4,2.4-3.1,4.1-3.6C6.5,7.3,6.2,8.4,6.1,9C4.9,9.1,3.9,9.4,3.1,9.8z M10.2,16.9c0.4-0.8,0.7-1.8,0.8-2.9
	c0.7-0.1,1.7-0.5,2.8-1.1C13.3,14.5,11.6,15.9,10.2,16.9L10.2,16.9z M15,10.8C13,12.6,10.8,13,10.5,13c0,0-0.2,0-0.8-0.4
	c-0.4-0.3-0.8-0.7-1.3-1.1s-0.8-0.9-1.1-1.3C7,9.7,7,9.5,7,9.5C7,9.2,7.4,7,9.3,5c2.2-2.5,5.6-3.8,9.7-4C18.9,5.2,17.5,8.6,15,10.8
	L15,10.8z"/>
</svg>
