<?xml version="1.0" encoding="utf-8"?>
<!-- Generator: Adobe Illustrator 18.0.0, SVG Export Plug-In . SVG Version: 6.00 Build 0)  -->
<!DOCTYPE svg PUBLIC "-//W3C//DTD SVG 1.1//EN" "http://www.w3.org/Graphics/SVG/1.1/DTD/svg11.dtd">
<svg version="1.1" id="Слой_1" xmlns="http://www.w3.org/2000/svg" xmlns:xlink="http://www.w3.org/1999/xlink" x="0px" y="0px"
	 viewBox="0 0 20 20" enable-background="new 0 0 20 20" xml:space="preserve">
<path fill="#00B800" d="M18.5,18h-11C6.7,18,6,17.3,6,16.5c0,0,0-1.2,0.9-2.3c0.5-0.6,1.2-1.2,2.1-1.5c1.1-0.4,2.4-0.7,3.9-0.7
	s2.9,0.2,3.9,0.7c0.9,0.4,1.6,0.9,2.1,1.5c0.9,1.1,0.9,2.3,0.9,2.3C20,17.3,19.3,18,18.5,18z M7,16.5C7,16.8,7.2,17,7.5,17h11
	c0.3,0,0.5-0.2,0.5-0.5c0,0,0-0.9-0.7-1.7c-1-1.2-2.8-1.8-5.3-1.8s-4.3,0.6-5.3,1.8C7,15.6,7,16.5,7,16.5z"/>
<path fill="#00B800" d="M13,11c-2.2,0-4-1.8-4-4s1.8-4,4-4s4,1.8,4,4S15.2,11,13,11z M13,4c-1.7,0-3,1.3-3,3s1.3,3,3,3s3-1.3,3-3
	S14.7,4,13,4z"/>
<path fill="#00B800" d="M4.5,18h-3C0.7,18,0,17.3,0,16.5c0,0,0-0.9,0.7-1.8c0.4-0.5,0.9-0.9,1.5-1.2C3,13.2,3.9,13,5,13
	c0.2,0,0.4,0,0.5,0C5.8,13,6,13.3,6,13.5S5.8,14,5.5,14c-0.2,0-0.3,0-0.5,0c-3.9,0-4,2.4-4,2.5C1,16.8,1.2,17,1.5,17h3
	C4.8,17,5,17.2,5,17.5S4.8,18,4.5,18L4.5,18z"/>
<path fill="#00B800" d="M5,12c-1.7,0-3-1.3-3-3s1.3-3,3-3s3,1.3,3,3S6.7,12,5,12z M5,7C3.9,7,3,7.9,3,9s0.9,2,2,2s2-0.9,2-2
	S6.1,7,5,7z"/>
</svg>
